<svg xmlns="http://www.w3.org/2000/svg" viewBox="0 0 32 32">
  <!-- 32px Next.js metadata icon (auto-exposed). Spec spec/6-brand.md §8.4.1 -->
  <defs>
    <linearGradient id="cv-grad" gradientUnits="userSpaceOnUse"
        x1="69.856384" y1="105.44554" x2="30.46669" y2="58.502728">
      <stop offset="0" stop-color="#12acaa"/>
      <stop offset="1" stop-color="#8be67e"/>
    </linearGradient>
  </defs>
  <rect width="32" height="32" rx="7" fill="#eef5ec"/>
  <g transform="translate(2.00 2.70) scale(0.457)">
    <g transform="translate(-19.521806 -52.870713)">
      <path fill="url(#cv-grad)" d="m 49.995398,52.872742 c -7.52179,0.139222 -13.593387,6.210573 -13.733012,13.732495 -0.0027,0.146092 -0.0027,0.383068 0,0.529166 0.139358,7.522126 6.211021,13.593794 13.733012,13.733012 0.146092,0.0027 0.383069,0.0027 0.529167,0 0.018,-3.38e-4 0.03575,-6.25e-4 0.05374,-10e-4 h 4.421952 a 13.85,13.85 0 0 0 -0.0015,0.0026 h 12.131043 0.114205 0.398942 v 0.01499 a 6.8955002,6.8955002 0 0 1 6.4394,6.8802 6.8955002,6.8955002 0 0 1 -3.513481,6.009452 6.5500002,6.5500002 0 0 0 -4.826579,-2.121834 6.5500002,6.5500002 0 0 0 -5.556766,3.081982 H 45.199308 A 13.05,13.05 0 0 0 32.571655,84.977759 13.05,13.05 0 0 0 19.521806,98.027608 13.05,13.05 0 0 0 32.571655,111.07746 13.05,13.05 0 0 0 45.116626,101.62377 h 15.040426 a 6.5500002,6.5500002 0 0 0 5.585188,3.12798 6.5500002,6.5500002 0 0 0 5.982581,-3.88401 A 13.85,13.85 0 0 0 80.80127,87.865955 13.85,13.85 0 0 0 67.439294,74.024939 v -0.0088 h -5.318021 c -0.02244,-0.0082 -0.04905,-0.0124 -0.07958,-0.0124 H 50.784497 a 0.1871248,0.1871248 0 0 1 -0.01447,0.0124 H 50.53955 a 0.1871248,0.1871248 0 0 1 -0.01964,-0.01757 l -0.120406,10e-4 c -4.030203,-0.14049 -7.058592,-3.168717 -7.194393,-6.934461 -0.0053,-0.146019 -0.0052,-0.383145 0,-0.529167 0.136331,-3.765327 3.164528,-6.793053 6.929809,-6.928776 0.146019,-0.0053 0.383145,-0.0052 0.529167,0 3.764863,0.136254 6.792461,3.163844 6.928776,6.928776 0.0053,0.146018 0.0053,0.383148 0,0.529167 -0.0041,0.110838 0.108123,0.200505 0.254248,0.200505 h 6.142778 c 0.146125,0 0.268347,-0.118468 0.269751,-0.264584 6.97e-4,-0.07248 6.32e-4,-0.249743 -0.0021,-0.395841 -0.139632,-7.521921 -6.21122,-13.59328 -13.733011,-13.732495 -0.146092,-0.0027 -0.383069,-0.0027 -0.529167,0 z M 32.563904,91.638334 a 6.5,6.5 0 0 1 6.499861,6.499862 6.5,6.5 0 0 1 -6.499861,6.499864 6.5,6.5 0 0 1 -6.499862,-6.499864 6.5,6.5 0 0 1 6.499862,-6.499862 z"/>
    </g>
  </g>
</svg>
